<?xml version="1.0" encoding="UTF-8"?>
<svg id="Layer_1" data-name="Layer 1" xmlns="http://www.w3.org/2000/svg" viewBox="0 0 398.6 230.43">
  <defs>
    <style>
      .cls-1 {
        fill: #ec1c24;
      }

      .cls-2 {
        fill: #098040;
      }
    </style>
  </defs>
  <path class="cls-1" d="M121.1,81.5h-30.1v-27.7c0-4.3-1.6-8-4.7-11.2s-6.8-4.7-11.2-4.7H0V18.5H98.5c12.5,0,22.7,10.1,22.7,22.7v40.3h-.1Zm0,106.6H0V49.1H17.2v98.8c0,3.9,1.4,7.9,4.1,10.7,3,3.2,6.8,4.9,11.1,4.9h42.5c3.9,0,7.8-1.4,10.7-4.1,3.2-3.1,4.9-6.8,4.9-11.1v-31.7c0,3.4-1.2,6.4-3.6,8.8s-5.3,3.7-8.9,3.7h-30.9V49.1h30.6V120.8c3.4,0,6.3-1.1,8.7-3.3,2.7-2.5,4.1-6.2,4.1-10v-11.7h15.8c8.2,0,14.8,6.6,14.8,14.8v77.5h0Z"/>
  <path class="cls-1" d="M259.9,49.1V188.1h-121.1V107.2c0-32.1,26-58.1,58.1-58.1h63Zm-30.6,99.7v-52.5c0-4-1.4-7.5-4.4-10.4-2.9-2.9-6.4-4.4-10.4-4.4h-43.6c-4.2,0-7.7,1.4-10.6,4.4-2.9,2.9-4.4,6.4-4.4,10.4v52.5c0,4,1.4,7.5,4.4,10.4,2.9,2.9,6.4,4.4,10.6,4.4h43.6c4,0,7.5-1.4,10.4-4.4,2.9-2.9,4.4-6.4,4.4-10.4Z"/>
  <path class="cls-1" d="M277.5,188.1V107.9c0-32.5,26.3-58.8,58.8-58.8h62.3V188.1h-47.4c4.2-3.1,6.2-7.2,6.2-12.3s-2.1-9.2-6.2-12.3h2c4,0,7.5-1.4,10.4-4.4,2.9-2.9,4.4-6.4,4.4-10.4v-52.4c0-4-1.5-7.5-4.4-10.4s-6.4-4.4-10.4-4.4h-43.6c-4.2,0-7.7,1.4-10.6,4.4-2.9,2.9-4.4,6.4-4.4,10.4v52.5c0,4,1.5,7.5,4.4,10.4s6.4,4.4,10.6,4.4h3.8c-4.2,3.1-6.3,7.2-6.3,12.3s2.1,9.2,6.3,12.3h-35.9v-.1Z"/>
  <path class="cls-2" d="M353.3,175.8c0,3-1,5.5-3.1,7.6s-4.6,3.1-7.6,3.1h-19.9c-3,0-5.5-1-7.6-3.1s-3.1-4.6-3.1-7.6,1-5.5,3.1-7.6,4.6-3.1,7.6-3.1h19.9c3,0,5.5,1,7.6,3.1,2,2.1,3.1,4.6,3.1,7.6h0Z"/>
  <g>
    <path class="cls-2" d="M266.5,11.9c-.6,1.8-1.5,3.5-1.9,5.2-.9,3.7,.1,7.2,2,10.3,1.9,3,4,5.8,5.8,8.9,1.2,2,2.2,4.1,2.8,6.3,1.1,4.4-1.6,7.9-6.1,8.3-13.4,1-23.1-12.5-17.6-24.8,.6-1.3,1.3-2.6,2.3-3.5,4-3.8,8.2-7.4,12.3-11.2,.2,.2,.3,.3,.4,.5h0Z"/>
    <path class="cls-2" d="M284.6,36.9c-1.4-4.1-4.2-7.3-6.5-10.7-1.5-2.2-2.9-4.5-3.9-6.9-1.3-3-.9-6.2,.8-9,1.5-2.6,3.2-5.1,5-7.5,.9-1.1,2.3-1.7,3.8-2.8,1.1,12.6,2.6,24.7,.8,36.9h0Z"/>
    <path class="cls-2" d="M228.4,23.3c1.7,.5,3.5,1,5.2,1.6,4.6,1.7,8.9,4,12.6,7.4,1.2,1.1,2.2,2.3,2.2,4.2,0,1.2,.5,2.4,.5,3.9-1.7-1.7-3.4-3.4-5.1-5.1-.4-.4-.6-.9-1-1.2s-1-.3-1.5-.5c0,.6-.2,1.4,0,1.6,2.4,2.5,5,4.8,7.5,7.2,1.1,1.1,2.4,2,3.5,3.1,1,.9,1.9,2,2.8,3-2.6,1.9-6.2,2-9.4,0-3.3-2-5.5-5-7-8.5-2.2-5-4.7-9.8-8.3-13.9-.7-.8-1.5-1.6-2.2-2.5,.1-.1,.1-.2,.2-.3h0Z"/>
    <path class="cls-2" d="M276.6,48.3c2.2-5.4-.3-9.8-3-14-1.7-2.6-3.5-5.1-5.1-7.7-3.1-4.9-3-9.8,.4-14.4,1.8-2.4,3.8-4.5,5.8-6.8,.2,.1,.4,.3,.6,.4-.5,.8-1,1.7-1.5,2.5-3.1,5-3,10,0,14.9,1.9,3.1,4.3,5.9,6.2,9.1,1.2,1.9,2.3,4.1,2.6,6.3,.7,4-1.8,7.7-6,9.7h0Z"/>
    <path class="cls-2" d="M259,51.1c5,1.3,9.4,3.7,13.2,7.1,.2,.2,.4,.5,.7,.6,.5,.2,1,.2,1.5,.2-.1-.6,0-1.3-.3-1.7-1.6-1.5-3.4-2.9-5.1-4.7,1.1,.2,2.5,0,3.4,.6,1.8,1.1,3.5,2.4,4.9,4,3.4,3.9,5.5,8.6,7.3,13.2-5-2.1-10-4.1-14.9-6.2-3.2-1.4-6.1-3.4-8.2-6.3-1.6-2-2.6-4.2-2.5-6.8h0Z"/>
  </g>
  <g>
    <path class="cls-2" d="M301.08,227.47c-.36-.19-.65-.69-.88-1.5-.25-.69-.49-1.29-.71-1.77-.22-.49-.44-.88-.67-1.19-.83-1.05-1.99-1.58-3.46-1.58-.78,0-1.97,.12-3.58,.38-.81,.11-1.51,.19-2.1,.23-.6,.04-1.1,.06-1.52,.06-5.69,0-8.54-2.93-8.54-8.79,0-1.28,.18-2.42,.54-3.44,.36-1.01,.86-1.91,1.5-2.69l.88,.92c-.39,.64-.7,1.39-.94,2.25-.24,.86-.35,1.81-.35,2.83s.17,1.91,.5,2.65,.81,1.3,1.42,1.69c.47,.28,1.08,.5,1.83,.67,.75,.17,1.62,.25,2.62,.25h.98c.43,0,.85-.01,1.27-.04l2.21-.08c2.44,0,4.76,.93,6.96,2.79v-17.67c0-.47-.56-.71-1.67-.71-.72,0-1.41,.21-2.06,.62-.65,.42-1.33,1.03-2.02,1.83-.58,.72-1.07,1.44-1.46,2.17-.39,.72-.67,1.49-.83,2.29,.61-.08,1.15-.12,1.62-.12,1.14,0,1.71,.89,1.71,2.67,0,.86-.31,1.54-.92,2.02-.61,.49-1.36,.73-2.25,.73-1.17,0-2.13-.36-2.9-1.08-.76-.72-1.15-1.68-1.15-2.88,0-2.5,1.05-4.89,3.17-7.17,1.06-1.06,2.17-1.89,3.33-2.5,1.17-.61,2.35-.92,3.54-.92,.75,0,1.65,.44,2.71,1.33,1,.83,1.5,1.62,1.5,2.38v23.46l-.29-.08Z"/>
    <path class="cls-2" d="M338.42,202.93h-4v27.5c-.31-.31-.67-.66-1.08-1.06-.42-.4-.78-.76-1.08-1.06v-4.04c-.42-.3-.9-.6-1.44-.88-.54-.28-1.08-.51-1.6-.71-.42-.17-.85-.3-1.31-.4s-.9-.15-1.31-.15c-1.08,0-2.57,.78-4.46,2.33-1.92,1.53-3.35,2.29-4.29,2.29s-1.96-.46-3.04-1.38c-.5-.44-.93-.92-1.29-1.42-.36-.5-.62-.99-.79-1.46l1.25-1.29c.11,.64,.45,1.19,1.02,1.67,.57,.47,1.17,.71,1.81,.71,.39,0,.77-.06,1.15-.17,.38-.11,.76-.26,1.15-.46,.94-.58,1.42-1.19,1.42-1.83,0-1.5-1.5-3.18-4.5-5.04-2.31-1.25-4.36-2.03-6.17-2.33l-1.96-3.54c1.81-1.22,3.81-2.34,6.02-3.35,2.21-1.01,4.56-1.85,7.06-2.52v-1.42h-15.67l-2.42-2.33h33.12l2.42,2.33Zm-17.46,15.21v-10.58c-1.03,.17-2.22,.55-3.58,1.15-1.36,.6-2.92,1.41-4.67,2.44,1.17,.28,2.71,1.24,4.62,2.88,.72,.72,1.38,1.43,1.98,2.12,.6,.69,1.15,1.36,1.65,2Zm11.21,3.71v-18.92h-9.12v1.46c.92,.25,1.81,.6,2.69,1.04s1.65,.99,2.31,1.65c.67,.65,1.21,1.39,1.62,2.21,.42,.82,.62,1.7,.62,2.65,0,.81-.15,1.58-.46,2.33-.28,.47-.62,.87-1.02,1.19-.4,.32-.91,.54-1.52,.65-1.06,0-1.83-.23-2.33-.69s-.75-.99-.75-1.6c0-1.55,.75-2.33,2.25-2.33,.36,0,.69,.03,1,.08,.31,.06,.57,.18,.79,.38,0-1.3-.43-2.32-1.29-3.04-.86-.72-2.17-1.24-3.92-1.54v12.79c1.42-.58,2.53-.88,3.33-.88,1.53,0,3.46,.86,5.79,2.58Z"/>
    <path class="cls-2" d="M360.33,202.93v24.33l-2.5-2.42,.33-12.46c0-.36-.08-.76-.25-1.19-.17-.43-.4-.9-.71-1.4-.31-.47-.61-.88-.92-1.21-.31-.33-.6-.61-.88-.83l-8.21,8.25-3.33-1.21c1.61-1.53,2.42-2.74,2.42-3.62,0-1.61-.47-2.42-1.42-2.42-.22,0-.46,.04-.71,.12s-.57,.19-.96,.33c-.69,.31-1.25,.46-1.67,.46-.47,0-.9-.19-1.27-.58-.38-.39-.56-.82-.56-1.29,0-.83,.3-1.67,.9-2.5,.6-.83,1.44-1.61,2.52-2.33,1-.64,2-1.12,3-1.46s1.94-.5,2.83-.5c3.42,0,6.6,2.51,9.54,7.54l.08-.04c-.08-2.03-.18-4.07-.29-6.12-.11-2.05-.21-4.11-.29-6.17l1.04,.88c.14,1.25,.26,2.06,.38,2.42,.33,.78,.93,1.17,1.79,1.17,.22,0,.47-.03,.75-.08l2.33,2.33h-3.96Zm-6.92,2.38c-1.08-1.19-2.31-1.79-3.67-1.79-2.58,0-4.4,1.06-5.46,3.17,1.25,0,2.16,.42,2.73,1.25,.57,.83,.78,1.88,.65,3.12l5.75-5.75Z"/>
    <path class="cls-2" d="M368.79,202.93v24.37l-2.25-2.33v-17.29c0-.72-.14-1.38-.42-1.96-.28-.58-.66-1.08-1.15-1.48s-1.04-.72-1.67-.96c-.62-.24-1.27-.35-1.94-.35l-2.33-2.33h2.67c1.42,0,2.51,.31,3.29,.94,.78,.62,1.4,1.66,1.88,3.1,0-.47-.01-1.06-.04-1.75-.03-.69-.08-1.51-.17-2.46-.06-.92-.1-1.71-.12-2.4s-.04-1.26-.04-1.73l.83,.71c.28,1.67,.76,2.86,1.46,3.58h2.08l2.29,2.33h-4.38Z"/>
    <path class="cls-2" d="M377.83,202.93v16.29c.53,1.06,1.28,1.58,2.25,1.58,1.39,0,2.82-.85,4.29-2.54,1.33-1.58,2.08-3.18,2.25-4.79l-.79,.08c-.75,0-1.44-.26-2.06-.79s-.94-1.19-.94-2c0-.86,.27-1.6,.81-2.21,.54-.61,1.26-.92,2.15-.92,1.33,0,2.43,.65,3.29,1.96,.31,.5,.55,1.09,.73,1.77,.18,.68,.27,1.37,.27,2.06,0,2.31-.96,4.58-2.87,6.83-1.95,2.39-4.06,3.58-6.33,3.58-1.47,0-2.65-.46-3.54-1.38-.89-.92-1.47-2.21-1.75-3.88v-15.67h-3.75l-2.12-2.33h17.71c0-.22,0-.46,.02-.73,.01-.26,.02-.51,.02-.73,.03-1.39-.95-2.08-2.92-2.08-.44,0-1.17,.08-2.17,.25-.47,.06-.88,.1-1.21,.12-.33,.03-.62,.04-.88,.04-1.78,0-3.42-.43-4.92-1.29-1.64-.92-2.46-2.22-2.46-3.92s.57-2.71,1.71-2.79c0,.11,.01,.24,.04,.38s.04,.28,.04,.42c-.39,.33-.58,.75-.58,1.25,0,.97,.4,1.68,1.21,2.12,.75,.42,1.61,.62,2.58,.62,.33,0,.74-.02,1.23-.06,.49-.04,1.05-.09,1.69-.15,1.25-.17,2.21-.25,2.88-.25,2.08,0,3.65,.61,4.71,1.83,.83,1.08,1.25,2.74,1.25,4.96h1.29l2.33,2.33h-15.46Z"/>
    <path class="cls-2" d="M387.33,198.56h-5.58l13.62-9.88h2.04l-10.08,9.88Z"/>
  </g>
</svg>