<?xml version="1.0" encoding="UTF-8"?>
<svg id="Layer_1" data-name="Layer 1" xmlns="http://www.w3.org/2000/svg" viewBox="0 0 405.91 190.01">
  <defs>
    <style>
      .cls-1 {
        fill: #ec1c24;
      }

      .cls-2 {
        fill: #0d5433;
      }
    </style>
  </defs>
  <path class="cls-2" d="M293.3,118.78c0,19.99-7.08,36.89-21.3,50.58-1.44,1.39-2.88,2.67-4.38,3.88-13.32,11.15-29.28,16.66-47.88,16.66-10.38,0-20.46-2.24-30.36-6.72-9.84-4.42-18-10.48-24.36-18.05-11.16-13.2-16.68-30.22-16.68-51.18V10.78c0-5.94,4.74-10.78,10.62-10.78h30.66c5.88,0,10.68,4.85,10.68,10.78V112.06c0,18.17,6.6,27.26,19.86,27.26,5.7,0,10.44-1.88,14.4-5.69,3.96-3.76,5.94-8.36,5.94-13.75s-1.86-10.3-5.58-14.05c-3.72-3.82-8.28-5.69-13.62-5.69-.48,0-1.02,0-1.5,.06-6.18,.67-11.58-4.36-11.58-10.72v-30.89c0-5.75,4.56-10.48,10.26-10.78,1.38-.06,2.58-.06,3.66-.06,17.34,0,32.52,5.51,45.42,16.48,1.62,1.33,3.24,2.79,4.8,4.36,13.98,13.87,20.94,30.65,20.94,50.21Z"/>
  <path class="cls-2" d="M405.91,33.98v41.61c0,6.42-4.28,10.96-9.34,10.9h-.12c-9.04,0-13.56,8.54-13.56,25.62v6.6c0,19.75-6.69,36.58-20.13,50.46-8.08,8.3-17.12,14.17-27.18,17.44-1.57-1.94-2.53-4.66-2.53-7.63V100.31c0-18.47,3.19-34.1,9.58-46.7,1.81-3.57,3.86-6.84,6.15-9.93,10.49-14.11,24.47-21.14,41.95-21.14,2.11,0,4.58,.18,7.35,.55,4.4,.54,7.84,5.27,7.84,10.9Z"/>
  <path class="cls-2" d="M141.31,23.99c-1.74-.91-3.78-1.45-5.94-1.45h-36.48c-7.14,0-12.96,5.88-12.96,13.08V115.21c0,9.33-3.9,13.99-11.7,13.99s-11.82-4.66-11.82-13.99V35.62c0-7.21-5.82-13.08-12.96-13.08H12.96c-7.14,0-12.96,5.88-12.96,13.08V109.09c0,23.62,5.64,42.04,16.86,55.3,14.46,17.02,33.54,25.5,57.24,25.5,5.82,0,11.4-.55,16.74-1.76,13.62-2.91,25.62-9.69,35.94-20.17,12.78-13.02,19.86-28.65,21.24-46.88,.18-2.3,.3-4.66,.3-7.03V35.62c0-5.03-2.88-9.45-7.02-11.63Z"/>
  <path class="cls-1" d="M166.87,23.02c-3.42-.3-6.48-.48-9.06-.48-5.82,0-11.34,.48-16.5,1.51-14.22,2.73-26.16,9.27-35.7,19.62-13.02,14.11-19.56,33.01-19.56,56.69v78.74c0,3.76,1.92,7.15,4.8,9.09,13.62-2.91,25.62-9.69,35.94-20.17,12.78-13.02,19.86-28.65,21.24-46.88v-8.96c0-2.3,.12-4.42,.3-6.42,1.32-12.78,6.84-19.2,16.62-19.2h.06c6.3,0,11.7-4.54,11.7-10.9V33.98c0-5.69-4.32-10.36-9.84-10.96Z"/>
  <path class="cls-1" d="M333.03,118.84c0,5.69-1.92,10.54-5.71,14.54-3.85,4.06-8.44,6.06-13.84,6.06s-9.87-2-13.72-6.06c-3.79-4-5.77-8.84-5.77-14.54s1.92-10.6,5.71-14.6c3.79-3.94,8.38-5.94,13.78-5.94s10.12,2,13.91,5.94c3.72,4,5.65,8.84,5.65,14.6v-18.53c0-18.47,3.29-34.1,9.87-46.7-8.63-3.94-18-5.88-28.12-5.88-18.25,0-33.9,5.51-46.87,16.48,1.68,1.33,3.29,2.79,4.84,4.36,14.15,13.87,21.17,30.65,21.17,50.21s-7.14,36.89-21.48,50.58c-1.49,1.39-2.92,2.67-4.47,3.88,12.91,11.21,28.18,16.78,45.63,16.78,7.82,0,15.15-1.15,22.04-3.39-1.61-1.94-2.61-4.66-2.61-7.63v-60.15Z"/>
</svg>