<?xml version="1.0" encoding="utf-8"?>
<!-- Generator: Adobe Illustrator 27.0.0, SVG Export Plug-In . SVG Version: 6.00 Build 0)  -->
<svg version="1.1" id="Layer_1" xmlns="http://www.w3.org/2000/svg" xmlns:xlink="http://www.w3.org/1999/xlink" x="0px" y="0px"
	 viewBox="0 0 398.7 230.9" style="enable-background:new 0 0 398.7 230.9;" xml:space="preserve">
<style type="text/css">
	.st0{fill:#EC1C24;}
	.st1{fill:#098040;}
</style>
<path class="st0" d="M121.1,81.4H91V53.7c0-4.3-1.6-8-4.7-11.2s-6.8-4.7-11.2-4.7H0V18.4h98.5c12.5,0,22.7,10.1,22.7,22.7V81.4z
	 M121.1,188H0V49h17.2v98.8c0,3.9,1.4,7.9,4.1,10.7c3,3.2,6.8,4.9,11.1,4.9h42.5c3.9,0,7.8-1.4,10.7-4.1c3.2-3.1,4.9-6.8,4.9-11.1
	v-31.7c0,3.4-1.2,6.4-3.6,8.8S81.6,129,78,129H47.1V49h30.6v71.7c3.4,0,6.3-1.1,8.7-3.3c2.7-2.5,4.1-6.2,4.1-10V95.7h15.8
	c8.2,0,14.8,6.6,14.8,14.8V188L121.1,188z"/>
<path class="st0" d="M259.9,49v139H138.8v-80.9c0-32.1,26-58.1,58.1-58.1L259.9,49L259.9,49z M229.3,148.7V96.2
	c0-4-1.4-7.5-4.4-10.4c-2.9-2.9-6.4-4.4-10.4-4.4h-43.6c-4.2,0-7.7,1.4-10.6,4.4c-2.9,2.9-4.4,6.4-4.4,10.4v52.5
	c0,4,1.4,7.5,4.4,10.4c2.9,2.9,6.4,4.4,10.6,4.4h43.6c4,0,7.5-1.4,10.4-4.4C227.8,156.2,229.3,152.7,229.3,148.7z"/>
<path class="st0" d="M277.5,188v-80.2c0-32.5,26.3-58.8,58.8-58.8h62.3v139h-47.4c4.2-3.1,6.2-7.2,6.2-12.3s-2.1-9.2-6.2-12.3h2
	c4,0,7.5-1.4,10.4-4.4c2.9-2.9,4.4-6.4,4.4-10.4V96.2c0-4-1.5-7.5-4.4-10.4c-2.9-2.9-6.4-4.4-10.4-4.4h-43.6
	c-4.2,0-7.7,1.4-10.6,4.4c-2.9,2.9-4.4,6.4-4.4,10.4v52.5c0,4,1.5,7.5,4.4,10.4c2.9,2.9,6.4,4.4,10.6,4.4h3.8
	c-4.2,3.1-6.3,7.2-6.3,12.3s2.1,9.2,6.3,12.3H277.5L277.5,188z"/>
<path class="st1" d="M353.3,175.7c0,3-1,5.5-3.1,7.6c-2.1,2.1-4.6,3.1-7.6,3.1h-19.9c-3,0-5.5-1-7.6-3.1c-2.1-2.1-3.1-4.6-3.1-7.6
	s1-5.5,3.1-7.6c2.1-2.1,4.6-3.1,7.6-3.1h19.9c3,0,5.5,1,7.6,3.1C352.2,170.2,353.3,172.7,353.3,175.7L353.3,175.7z"/>
<g>
	<path class="st1" d="M266.5,11.8c-0.6,1.8-1.5,3.5-1.9,5.2c-0.9,3.7,0.1,7.2,2,10.3c1.9,3,4,5.8,5.8,8.9c1.2,2,2.2,4.1,2.8,6.3
		c1.1,4.4-1.6,7.9-6.1,8.3C255.7,51.8,246,38.3,251.5,26c0.6-1.3,1.3-2.6,2.3-3.5c4-3.8,8.2-7.4,12.3-11.2
		C266.3,11.5,266.4,11.6,266.5,11.8L266.5,11.8z"/>
	<path class="st1" d="M284.6,36.8c-1.4-4.1-4.2-7.3-6.5-10.7c-1.5-2.2-2.9-4.5-3.9-6.9c-1.3-3-0.9-6.2,0.8-9c1.5-2.6,3.2-5.1,5-7.5
		c0.9-1.1,2.3-1.7,3.8-2.8C284.9,12.5,286.4,24.6,284.6,36.8L284.6,36.8z"/>
	<path class="st1" d="M228.4,23.2c1.7,0.5,3.5,1,5.2,1.6c4.6,1.7,8.9,4,12.6,7.4c1.2,1.1,2.2,2.3,2.2,4.2c0,1.2,0.5,2.4,0.5,3.9
		c-1.7-1.7-3.4-3.4-5.1-5.1c-0.4-0.4-0.6-0.9-1-1.2c-0.4-0.3-1-0.3-1.5-0.5c0,0.6-0.2,1.4,0,1.6c2.4,2.5,5,4.8,7.5,7.2
		c1.1,1.1,2.4,2,3.5,3.1c1,0.9,1.9,2,2.8,3c-2.6,1.9-6.2,2-9.4,0c-3.3-2-5.5-5-7-8.5c-2.2-5-4.7-9.8-8.3-13.9
		c-0.7-0.8-1.5-1.6-2.2-2.5C228.3,23.4,228.3,23.3,228.4,23.2L228.4,23.2z"/>
	<path class="st1" d="M276.6,48.2c2.2-5.4-0.3-9.8-3-14c-1.7-2.6-3.5-5.1-5.1-7.7c-3.1-4.9-3-9.8,0.4-14.4c1.8-2.4,3.8-4.5,5.8-6.8
		c0.2,0.1,0.4,0.3,0.6,0.4c-0.5,0.8-1,1.7-1.5,2.5c-3.1,5-3,10,0,14.9c1.9,3.1,4.3,5.9,6.2,9.1c1.2,1.9,2.3,4.1,2.6,6.3
		C283.3,42.5,280.8,46.2,276.6,48.2L276.6,48.2z"/>
	<path class="st1" d="M259,51c5,1.3,9.4,3.7,13.2,7.1c0.2,0.2,0.4,0.5,0.7,0.6c0.5,0.2,1,0.2,1.5,0.2c-0.1-0.6,0-1.3-0.3-1.7
		c-1.6-1.5-3.4-2.9-5.1-4.7c1.1,0.2,2.5,0,3.4,0.6c1.8,1.1,3.5,2.4,4.9,4c3.4,3.9,5.5,8.6,7.3,13.2c-5-2.1-10-4.1-14.9-6.2
		c-3.2-1.4-6.1-3.4-8.2-6.3C259.9,55.8,258.9,53.6,259,51L259,51z"/>
</g>
<g>
	<path class="st1" d="M317.1,231c-0.4-0.2-0.7-0.7-0.9-1.5c-0.2-0.7-0.5-1.3-0.7-1.8c-0.2-0.5-0.4-0.9-0.7-1.2
		c-0.8-1.1-2-1.6-3.5-1.6c-0.8,0-2,0.1-3.6,0.4c-0.8,0.1-1.5,0.2-2.1,0.2c-0.6,0-1.1,0.1-1.5,0.1c-5.7,0-8.5-2.9-8.5-8.8
		c0-1.3,0.2-2.4,0.5-3.4c0.4-1,0.9-1.9,1.5-2.7l0.9,0.9c-0.4,0.6-0.7,1.4-0.9,2.2c-0.2,0.9-0.4,1.8-0.4,2.8s0.2,1.9,0.5,2.6
		c0.3,0.7,0.8,1.3,1.4,1.7c0.5,0.3,1.1,0.5,1.8,0.7c0.7,0.2,1.6,0.2,2.6,0.2c0.2,0,0.5,0,1,0s0.9,0,1.3,0l2.2-0.1
		c2.4,0,4.8,0.9,6.9,2.8V207c0-0.5-0.6-0.7-1.7-0.7c-0.7,0-1.4,0.2-2.1,0.6c-0.7,0.4-1.3,1-2,1.8c-0.6,0.7-1.1,1.4-1.5,2.2
		c-0.4,0.7-0.7,1.5-0.8,2.3c0.6-0.1,1.2-0.1,1.6-0.1c1.1,0,1.7,0.9,1.7,2.7c0,0.9-0.3,1.5-0.9,2s-1.4,0.7-2.2,0.7
		c-1.2,0-2.1-0.4-2.9-1.1c-0.8-0.7-1.1-1.7-1.1-2.9c0-2.5,1.1-4.9,3.2-7.2c1.1-1.1,2.2-1.9,3.3-2.5c1.2-0.6,2.3-0.9,3.5-0.9
		c0.7,0,1.6,0.4,2.7,1.3c1,0.8,1.5,1.6,1.5,2.4V231L317.1,231z"/>
	<path class="st1" d="M336.1,206.5c-1.7,0.4-3.3,1.1-4.5,2c-1.3,0.9-2.4,2-3.2,3.3c-0.8,1.2-1.4,2.6-1.8,4.2
		c-0.4,1.5-0.6,3.2-0.6,5.1c0,1.7,0.5,3.2,1.3,4.5c1.5,2.1,3,2.9,4.4,2.5c-0.5-0.3-0.9-0.7-1.1-1.2c-0.2-0.4-0.4-0.9-0.4-1.4
		c0-0.7,0.3-1.3,0.9-1.8c0.6-0.5,1.3-0.7,2-0.7c0.8,0,1.4,0.3,2,0.9c0.6,0.6,0.8,1.4,0.8,2.4c0,0.6-0.1,1.1-0.3,1.5
		c-0.2,0.5-0.5,0.9-0.9,1.2c-0.4,0.3-0.8,0.6-1.4,0.8c-0.5,0.2-1,0.3-1.6,0.3c-2.7,0-4.8-1.4-6.2-4.1c-1.2-2.2-1.8-4.8-1.8-7.7
		c0-4,1.7-8,5-11.9h-7.7l-2.3-2.3h15.4L336.1,206.5z"/>
	<path class="st1" d="M364.1,206.5h-13.3c-0.4,0-0.8,0.2-1.2,0.5c-0.4,0.3-0.6,0.6-0.7,1c0,0.4,0.2,0.7,0.5,1
		c0.3,0.3,0.7,0.5,1.1,0.7c0.4,0.2,0.9,0.4,1.4,0.5c0.5,0.1,0.8,0.2,1.1,0.2c1.3,0.1,2.4,0.1,3.4-0.1c1-0.2,1.8-0.5,2.5-0.9l3.5,3.7
		c-1.3,1.2-2.2,2.8-2.9,4.6c-0.7,1.8-1,3.9-1,6.3c0,1.8,0.6,4,1.8,6.7L358,230c-0.6-1.6-1-3.1-1.3-4.7c-0.3-1.6-0.5-3.2-0.5-5
		c0-2.3,0.5-4.6,1.5-7.1c-2.5,0-4.5-0.3-6-0.9c-1.6-0.6-3.1-1.9-4.6-3.7l-0.2-0.1c-0.4,0-0.8,0.2-1.2,0.6s-0.8,0.9-1.3,1.7
		c-0.9,1.5-1.4,2.6-1.4,3.4c0,1.1,0.6,1.7,1.8,1.7c0.3,0,0.6-0.1,1.1-0.2c0.4-0.1,0.9-0.3,1.5-0.6l2.6-1.3c1,0.4,1.9,1.3,2.7,2.7
		c0.4,0.7,0.7,1.4,0.9,2.1c0.2,0.7,0.3,1.3,0.3,1.8c0,1.7-0.7,3.3-2,4.6c-1.3,1.3-2.8,1.9-4.6,1.9c-4,0-6.9-2.2-8.7-6.5
		c-0.6-1.6-1.1-3.3-1.4-5.3c-0.3-1.9-0.5-4.1-0.5-6.5l1.2,0.7c-0.1,0.7-0.1,1.5,0,2.5c0.3,2.7,1,5,2.2,6.9c0.8,1.4,1.8,2.5,2.8,3.2
		s2.3,1.1,3.6,1.1c1.2,0,2.4-0.3,3.5-0.8c1.5-0.7,2.2-1.5,2.2-2.6c0-0.4-0.1-0.9-0.4-1.3c-0.2-0.5-0.6-0.7-1-0.7
		c-0.2,0-0.8,0.2-1.9,0.6c-1,0.4-1.8,0.6-2.5,0.6c-1.6,0-2.8-0.6-3.9-1.9c-1.1-1.2-1.6-2.6-1.6-4.2c0-0.9,0.4-2,1.1-3.3
		c0.8-1.3,1.6-2.2,2.5-2.9h-10.2l-2.3-2.3h29.8L364.1,206.5z"/>
	<path class="st1" d="M377.9,206.5v16.3c0.2,1,1,1.6,2.3,1.6c1.4,0,2.8-0.8,4.3-2.5c0.7-0.8,1.2-1.6,1.6-2.4s0.6-1.6,0.7-2.4
		l-0.7,0.1c-0.8,0-1.5-0.3-2.1-0.8s-0.9-1.2-0.9-2c0-0.9,0.3-1.6,0.9-2.2c0.6-0.6,1.3-0.9,2.2-0.9c1.3,0,2.4,0.7,3.2,2
		c0.7,1.1,1.1,2.4,1.1,3.8c0,2.3-1,4.5-2.9,6.8c-2,2.4-4.1,3.6-6.4,3.6c-3.4-0.2-5.2-1.9-5.3-5.2v-2.7l-0.4-2.5
		c-0.4-2.5-1.6-3.7-3.5-3.7c-0.4,0-0.7,0.1-1,0.2c0.6,0.4,0.9,1,0.9,1.7c0,0.7-0.3,1.3-0.9,1.8s-1.3,0.7-2,0.7
		c-2.1,0-3.2-0.9-3.2-2.8c0-0.7,0.1-1.3,0.4-1.9s0.6-1.1,1-1.5c0.4-0.4,0.9-0.8,1.5-1c0.6-0.2,1.2-0.4,1.8-0.4
		c1.2,0,2.3,0.4,3.3,1.3c0.6,0.4,1,0.9,1.3,1.4c0.3,0.5,0.6,1,0.7,1.6h0.1v-7.9h-12.2l-2.3-2.3h24.4c0-0.2,0-0.5,0-0.7
		c0-0.3,0-0.5,0-0.7c0-1.4-0.9-2.1-2.9-2.1c-0.2,0-0.5,0-1,0c-0.4,0-0.9,0.1-1.5,0.2c-0.1,0-0.1,0-0.2,0c-0.1,0-0.1,0-0.2,0
		c-0.7,0.1-1.3,0.1-1.8,0.1s-0.9,0-1.1,0c-1.8,0-3.4-0.4-4.8-1.3c-1.7-0.9-2.5-2.2-2.5-3.9c0-1.8,0.6-2.7,1.7-2.8l0.1,0.8
		c-0.1,0.1-0.3,0.3-0.4,0.6s-0.2,0.5-0.2,0.7c0,0.9,0.4,1.7,1.3,2.1c0.7,0.4,1.5,0.6,2.5,0.6c0.3,0,0.8,0,1.4-0.1
		c0.6,0,1.3-0.1,2.2-0.1c1.8-0.2,3-0.2,3.6-0.2c2.2,0,3.8,0.6,4.7,1.8c0.9,1.1,1.3,2.7,1.3,5h3.2l2.3,2.3H377.9z"/>
</g>
</svg>
